<?xml version="1.0" encoding="UTF-8"?>
<svg version="1.1" xmlns="http://www.w3.org/2000/svg" width="296" height="41">
<path d="M0 0 C0.75361816 -0.0213501 1.50723633 -0.0427002 2.28369141 -0.06469727 C6.82366681 -0.09284818 9.72402029 0.41024444 13.3125 3.25 C14.32437895 4.90948148 15.3251546 6.57580562 16.3125 8.25 C18.0625 9.75 18.0625 9.75 20.3125 10.25 C22.3187189 9.95640699 24.31761766 9.61270588 26.3125 9.25 C29.98067884 9.15386842 33.64381168 9.19124876 37.3125 9.25 C37.498125 8.06857422 37.498125 8.06857422 37.6875 6.86328125 C38.3125 4.25 38.3125 4.25 40.3125 2.4375 C45.41919543 0.41609973 50.3427601 0.92171002 55.6875 1.8125 C58.41160122 2.47690388 58.41160122 2.47690388 61.3125 1.25 C66.211919 0.7434499 70.07649545 0.55783745 74.4375 3 C76.3125 5.25 76.3125 5.25 76.3125 9.25 C77.39917969 9.23259766 77.39917969 9.23259766 78.5078125 9.21484375 C83.59343711 9.16737792 88.29476787 9.34938141 93.3125 10.25 C93.9725 9.92 94.6325 9.59 95.3125 9.25 C98.03010108 9.17818179 100.72109388 9.15700494 103.4375 9.1875 C104.19160156 9.19201172 104.94570312 9.19652344 105.72265625 9.20117188 C107.58597127 9.21296501 109.44924555 9.23090058 111.3125 9.25 C111.43753906 8.29867188 111.56257812 7.34734375 111.69140625 6.3671875 C112.3125 3.25 112.3125 3.25 114.25 1.375 C118.58960205 -0.21913953 122.7332955 -0.17144891 127.3125 0.25 C128.3025 0.745 128.3025 0.745 129.3125 1.25 C132.00759352 1.2968203 134.68131061 1.29378819 137.375 1.25 C142.15023295 1.20152809 146.8188728 1.17625798 151.5625 1.8125 C155.06338879 2.22093703 156.95050804 1.94437873 160.3125 1.25 C167.61032692 0.72656966 173.7522984 0.85275275 180.3125 4.25 C185.28994685 9.48270054 185.39659308 12.75557867 185.25 19.71875 C185.13297338 22.24511297 185.13297338 22.24511297 186.3125 24.25 C186.71704244 29.50905171 185.97416853 32.70298292 183.3125 37.25 C182.6525 37.25 181.9925 37.25 181.3125 37.25 C181.3125 37.91 181.3125 38.57 181.3125 39.25 C176.659652 41.6185524 172.46408016 41.51643267 167.375 41.4375 C166.19647461 41.4365332 166.19647461 41.4365332 164.99414062 41.43554688 C161.52162381 41.40939403 158.30610425 41.24893283 154.87109375 40.67578125 C152.33153534 39.99549423 152.33153534 39.99549423 150.3125 41.25 C148.68491861 41.34535119 147.05346712 41.37795044 145.4230957 41.37939453 C144.40476151 41.38254669 143.38642731 41.38569885 142.3372345 41.38894653 C141.23207993 41.3869223 140.12692535 41.38489807 138.98828125 41.3828125 C137.85351852 41.38376923 136.7187558 41.38472595 135.54960632 41.38571167 C133.14285222 41.38639338 130.73609629 41.38453974 128.3293457 41.38037109 C124.65767229 41.37504737 120.98612259 41.38030363 117.31445312 41.38671875 C114.97656223 41.38605748 112.63867141 41.38477532 110.30078125 41.3828125 C109.20574783 41.38483673 108.11071442 41.38686096 106.98249817 41.38894653 C102.64400393 41.3757218 98.41725788 41.357873 94.12573242 40.67919922 C93.19736572 40.53756348 92.26899902 40.39592773 91.3125 40.25 C90.9825 40.58 90.6525 40.91 90.3125 41.25 C85.26316388 41.54701977 80.18630004 41.48939084 75.1875 40.6875 C74.23875 40.543125 73.29 40.39875 72.3125 40.25 C71.9825 40.58 71.6525 40.91 71.3125 41.25 C68.26844017 41.35126486 65.24755837 41.38967625 62.203125 41.3828125 C61.28416443 41.38376923 60.36520386 41.38472595 59.418396 41.38571167 C57.46805758 41.38639382 55.5177169 41.3845371 53.56738281 41.38037109 C50.58914025 41.37504762 47.61105018 41.38030226 44.6328125 41.38671875 C42.739583 41.3860575 40.8463536 41.38477536 38.953125 41.3828125 C38.06336975 41.38483673 37.1736145 41.38686096 36.25689697 41.38894653 C32.10752835 41.37332489 28.38368041 41.11397093 24.3125 40.25 C23.3225 40.745 23.3225 40.745 22.3125 41.25 C20.70407882 41.34603055 19.0917528 41.3807458 17.48046875 41.3828125 C16.51689453 41.38410156 15.55332031 41.38539062 14.56054688 41.38671875 C13.55056641 41.38285156 12.54058594 41.37898438 11.5 41.375 C10.50162109 41.37886719 9.50324219 41.38273437 8.47460938 41.38671875 C7.50716797 41.38542969 6.53972656 41.38414063 5.54296875 41.3828125 C4.66020264 41.38168457 3.77743652 41.38055664 2.86791992 41.37939453 C0.3125 41.25 0.3125 41.25 -2.3269043 40.67919922 C-4.82668288 40.02926506 -4.82668288 40.02926506 -7.6875 41.25 C-10.14286342 41.39675735 -12.60292552 41.47100698 -15.0625 41.5 C-16.36960937 41.52578125 -17.67671875 41.5515625 -19.0234375 41.578125 C-22.83824144 41.23650077 -24.68515501 40.56641599 -27.6875 38.25 C-28.86385297 35.89729407 -28.82109359 34.429248 -28.8125 31.8125 C-28.81507812 31.03003906 -28.81765625 30.24757813 -28.8203125 29.44140625 C-28.6875 27.25 -28.6875 27.25 -27.6875 24.25 C-29.90526622 22.94485264 -29.90526622 22.94485264 -32.6875 22.25 C-34.37957001 23.2063874 -36.0417841 24.21588349 -37.6875 25.25 C-64.27289884 36.97319997 -64.27289884 36.97319997 -74.6875 37.25 C-77.42784905 36.16499417 -79.72216522 34.62838373 -82.125 32.9375 C-82.76115234 32.52048828 -83.39730469 32.10347656 -84.05273438 31.67382812 C-85.64587838 30.6008944 -87.17361285 29.43213379 -88.6875 28.25 C-88.6875 27.59 -88.6875 26.93 -88.6875 26.25 C-89.574375 26.023125 -90.46125 25.79625 -91.375 25.5625 C-95.21707726 24.0401675 -97.13135561 22.48277085 -99.6875 19.25 C-99.8203125 16.58203125 -99.8203125 16.58203125 -99.6875 14.25 C-97.30330112 13.29632045 -94.91867806 12.34401996 -92.53125 11.3984375 C-90.74994016 10.67906237 -88.97722949 9.93757088 -87.21875 9.1640625 C-80.8247039 6.40299714 -74.58106407 5.1501905 -67.6875 4.25 C-67.6875 3.59 -67.6875 2.93 -67.6875 2.25 C-64.3125 2.125 -64.3125 2.125 -60.6875 2.25 C-60.0275 2.91 -59.3675 3.57 -58.6875 4.25 C-57.6975 4.25 -56.7075 4.25 -55.6875 4.25 C-54.16916551 5.38875087 -52.65149715 6.52839803 -51.13671875 7.671875 C-45.69369918 11.17901999 -39.58830301 13.61476365 -33.6875 16.25 C-33.65011719 15.49074219 -33.61273438 14.73148438 -33.57421875 13.94921875 C-33.50847656 12.95535156 -33.44273438 11.96148437 -33.375 10.9375 C-33.31699219 9.95136719 -33.25898437 8.96523437 -33.19921875 7.94921875 C-32.62873468 4.94002416 -32.16061636 3.9987253 -29.6875 2.25 C-21.05799575 -0.98122693 -9.18018486 0.13669406 0 0 Z " fill="#070401" transform="translate(103.6875,-0.25)"/>
<path d="M0 0 C3.375 -0.125 3.375 -0.125 7 0 C7.66 0.66 8.32 1.32 9 2 C9.99 2 10.98 2 12 2 C13.52041946 3.1403146 15.03979448 4.28204127 16.5546875 5.4296875 C20.4583432 7.93650794 24.68913919 9.73073202 28.93261719 11.58813477 C33.89944315 13.7988863 33.89944315 13.7988863 35 16 C31.26885117 17.40497052 27.53620269 18.80564734 23.80078125 20.19921875 C20.49885743 21.43256631 17.20659999 22.68869381 13.91796875 23.95703125 C12.23705137 24.59654398 10.55606317 25.2358706 8.875 25.875 C8.08246826 26.1851001 7.28993652 26.4952002 6.47338867 26.81469727 C2.19969485 28.42637339 -1.37171428 29.6520513 -6 29 C-9.0703125 27.609375 -9.0703125 27.609375 -12.125 25.75 C-13.13820313 25.14671875 -14.15140625 24.5434375 -15.1953125 23.921875 C-18.90206309 21.38187321 -21.48840843 19.38430661 -23.0625 15.125 C-22.99008285 11.50414248 -21.99426689 9.85271327 -19.5 7.25 C-14.4090162 3.0075135 -6.33776798 2.96399707 0 2 C0 1.34 0 0.68 0 0 Z " fill="#8C753A" transform="translate(36,2)"/>
<path d="M0 0 C0.33 0 0.66 0 1 0 C1 3.96 1 7.92 1 12 C2.65 12 4.3 12 6 12 C6 10.68 6 9.36 6 8 C7.32 8 8.64 8 10 8 C10 12.95 10 17.9 10 23 C8.68 23 7.36 23 6 23 C6 24.65 6 26.3 6 28 C10.62 28 15.24 28 20 28 C20 26.35 20 24.7 20 23 C18.68 23 17.36 23 16 23 C16 19.37 16 15.74 16 12 C16.33 12 16.66 12 17 12 C17 15.3 17 18.6 17 22 C18.32 22 19.64 22 21 22 C21 24.31 21 26.62 21 29 C15.72 29 10.44 29 5 29 C5 27.35 5 25.7 5 24 C4.34 24 3.68 24 3 24 C3 23.01 3 22.02 3 21 C0.78223378 19.69485264 0.78223378 19.69485264 -2 19 C-3.69207001 19.9563874 -5.3542841 20.96588349 -7 22 C-33.58539884 33.72319997 -33.58539884 33.72319997 -44 34 C-46.74034905 32.91499417 -49.03466522 31.37838373 -51.4375 29.6875 C-52.07365234 29.27048828 -52.70980469 28.85347656 -53.36523438 28.42382812 C-54.95837838 27.3508944 -56.48611285 26.18213379 -58 25 C-58 24.34 -58 23.68 -58 23 C-58.886875 22.773125 -59.77375 22.54625 -60.6875 22.3125 C-64.52957726 20.7901675 -66.44385561 19.23277085 -69 16 C-69.1328125 13.33203125 -69.1328125 13.33203125 -69 11 C-67.3789897 10.30314502 -65.75303934 9.61777139 -64.125 8.9375 C-63.22007813 8.55464844 -62.31515625 8.17179688 -61.3828125 7.77734375 C-59 7 -59 7 -57 8 C-57.99 9.485 -57.99 9.485 -59 11 C-59.02749478 13.06910593 -59.02749478 13.06910593 -58.625 15.1875 C-58.41875 16.445625 -58.2125 17.70375 -58 19 C-57.27683594 19.26554687 -56.55367187 19.53109375 -55.80859375 19.8046875 C-52.11256878 21.37768283 -48.93861382 23.54462666 -45.59765625 25.7578125 C-41.24335854 27.84001802 -37.88377217 27.26463897 -33.32128906 25.8984375 C-31.96579777 25.40032295 -30.61402568 24.89200131 -29.265625 24.375 C-28.18677032 23.97547119 -28.18677032 23.97547119 -27.08612061 23.56787109 C-24.80388881 22.72103368 -22.52683879 21.86122017 -20.25 21 C-17.95810043 20.14107809 -15.66521657 19.28493057 -13.37103271 18.43212891 C-11.94718777 17.90202036 -10.5248065 17.36796046 -9.10406494 16.82958984 C-4.22132404 15 -4.22132404 15 -2 15 C-2.02320312 14.08476562 -2.04640625 13.16953125 -2.0703125 12.2265625 C-2.08835937 11.03804687 -2.10640625 9.84953125 -2.125 8.625 C-2.14820312 7.44164062 -2.17140625 6.25828125 -2.1953125 5.0390625 C-2 2 -2 2 0 0 Z " fill="#211406" transform="translate(73,3)"/>
<path d="M0 0 C2.71003427 -0.1358035 5.41318941 -0.23444624 8.125 -0.3125 C8.88554687 -0.35439453 9.64609375 -0.39628906 10.4296875 -0.43945312 C14.55649387 -0.52839292 17.19996932 -0.29210081 20.4921875 2.33203125 C24.3941698 6.48320556 24.28616068 10.0562529 24.21484375 15.4921875 C23.91876682 18.94821279 22.9986905 21.17426516 21 24 C16.8658861 27.20697806 13.23583572 27.37590679 8.1875 27.1875 C7.14819336 27.16719727 7.14819336 27.16719727 6.08789062 27.14648438 C4.39158735 27.11138845 2.69568864 27.05758943 1 27 C1 24.69 1 22.38 1 20 C1.99 20 2.98 20 4 20 C4 15.71 4 11.42 4 7 C2.68 6.67 1.36 6.34 0 6 C0 4.02 0 2.04 0 0 Z " fill="#F59D39" transform="translate(233,5)"/>
<path d="M0 0 C3.38115651 -0.29036649 6.62919149 -0.44908891 10 0 C12.625 2.5 12.625 2.5 14 5 C14.474375 4.175 14.94875 3.35 15.4375 2.5 C18.34926408 -0.34074545 18.88515746 -0.34293183 22.75 -0.3125 C24.16823316 -0.23243845 25.58603027 -0.13595863 27 0 C27 1.98 27 3.96 27 6 C26.34 6 25.68 6 25 6 C25 10.95 25 15.9 25 21 C25.66 21 26.32 21 27 21 C27 22.65 27 24.3 27 26 C23.37 26 19.74 26 16 26 C16 24.35 16 22.7 16 21 C16.66 21 17.32 21 18 21 C17.67 18.36 17.34 15.72 17 13 C15.7934375 13.2784375 15.7934375 13.2784375 14.5625 13.5625 C13.716875 13.706875 12.87125 13.85125 12 14 C11.67 13.67 11.34 13.34 11 13 C10.67 15.64 10.34 18.28 10 21 C10.66 21 11.32 21 12 21 C12 22.65 12 24.3 12 26 C8.04 26 4.08 26 0 26 C0 24.35 0 22.7 0 21 C0.99 21 1.98 21 3 21 C3 16.05 3 11.1 3 6 C2.01 6 1.02 6 0 6 C0 4.02 0 2.04 0 0 Z " fill="#F79F3B" transform="translate(144,5)"/>
<path d="M0 0 C2.56364483 -0.10845031 5.12266279 -0.18749744 7.6875 -0.25 C8.40873047 -0.28351562 9.12996094 -0.31703125 9.87304688 -0.3515625 C13.76885786 -0.42271887 15.58539895 -0.25885432 18.984375 1.86328125 C21 4 21 4 21.5625 6.4375 C20.83544936 9.74961959 19.26284116 11.52501748 17 14 C17.639375 14.309375 18.27875 14.61875 18.9375 14.9375 C21 16 21 16 22 17 C21.5433348 23.1649802 21.5433348 23.1649802 19.88671875 25.7109375 C16.99968596 27.68344438 14.50941631 27.32233822 11.0625 27.25 C9.83660156 27.23453125 8.61070312 27.2190625 7.34765625 27.203125 C4.70592755 27.04283341 2.50886175 26.77969638 0 26 C0 24.02 0 22.04 0 20 C0.99 20 1.98 20 3 20 C3 15.38 3 10.76 3 6 C2.01 6 1.02 6 0 6 C0 4.02 0 2.04 0 0 Z " fill="#E59235" transform="translate(259,5)"/>
<path d="M0 0 C1.75978854 1.60786435 3.11909092 3.3046104 4.546875 5.2109375 C6.67967373 7.8368026 9.10963355 9.27954378 12 11 C11.125 15.875 11.125 15.875 10 17 C7.1875 17.25 7.1875 17.25 4 17 C3.401875 16.46375 2.80375 15.9275 2.1875 15.375 C-0.56159349 13.64699838 -1.3450269 14.04577345 -4.4375 14.75 C-5.96088427 15.15724134 -7.48197264 15.57322362 -9 16 C-10.66534667 16.33986667 -12.33129513 16.67702486 -14 17 C-14 17.66 -14 18.32 -14 19 C-15.32 18.67 -16.64 18.34 -18 18 C-17.67 16.68 -17.34 15.36 -17 14 C-15.35 13.67 -13.7 13.34 -12 13 C-12 13.66 -12 14.32 -12 15 C-11.01 14.34 -10.02 13.68 -9 13 C-7.68 13 -6.36 13 -5 13 C-5.2475 12.0409375 -5.2475 12.0409375 -5.5 11.0625 C-6 9 -6 9 -6 8 C-6.37769531 8.48082031 -6.75539063 8.96164062 -7.14453125 9.45703125 C-9.64531405 11.53662958 -11.47306804 11.49841577 -14.6875 11.6875 C-15.68136719 11.75324219 -16.67523438 11.81898437 -17.69921875 11.88671875 C-18.45847656 11.92410156 -19.21773437 11.96148437 -20 12 C-20 13.32 -20 14.64 -20 16 C-21.32 16 -22.64 16 -24 16 C-25.4648776 13.67342969 -26.01737644 12.33884066 -25.875 9.5625 C-24.76354869 6.30753544 -23.43495354 4.43495354 -21 2 C-14.79168816 -0.75924971 -6.58219867 -2.43635575 0 0 Z " fill="#ADA535" transform="translate(39,6)"/>
<path d="M0 0 C3.3 0 6.6 0 10 0 C10 2.64 10 5.28 10 8 C11.953125 7.83723958 13.90625 7.67447917 15.859375 7.51171875 C18 8 18 8 20.21875 10.0625 C22.39418865 13.6500655 22.59409067 16.14192554 22.75 20.3125 C22.80671875 21.56675781 22.8634375 22.82101563 22.921875 24.11328125 C22.94765625 25.06589844 22.9734375 26.01851562 23 27 C19.7 27 16.4 27 13 27 C13.33 23.37 13.66 19.74 14 16 C12.68 16 11.36 16 10 16 C9.67 18.31 9.34 20.62 9 23 C9.66 23 10.32 23 11 23 C11 24.32 11 25.64 11 27 C7.7 27 4.4 27 1 27 C1 25.68 1 24.36 1 23 C1.66 23 2.32 23 3 23 C3 17.39 3 11.78 3 6 C2.01 6 1.02 6 0 6 C0 4.02 0 2.04 0 0 Z " fill="#F09937" transform="translate(100,4)"/>
<path d="M0 0 C0.77923828 0.00451172 1.55847656 0.00902344 2.36132812 0.01367188 C4.26175268 0.02533092 6.16213706 0.04326123 8.0625 0.0625 C8.0625 4.0225 8.0625 7.9825 8.0625 12.0625 C6.4125 12.0625 4.7625 12.0625 3.0625 12.0625 C2.7325 10.4125 2.4025 8.7625 2.0625 7.0625 C1.0725 7.0625 0.0825 7.0625 -0.9375 7.0625 C-0.9375 12.0125 -0.9375 16.9625 -0.9375 22.0625 C0.3825 22.0625 1.7025 22.0625 3.0625 22.0625 C3.0625 23.7125 3.0625 25.3625 3.0625 27.0625 C-1.5575 27.0625 -6.1775 27.0625 -10.9375 27.0625 C-10.9375 25.4125 -10.9375 23.7625 -10.9375 22.0625 C-9.6175 22.0625 -8.2975 22.0625 -6.9375 22.0625 C-6.9375 17.1125 -6.9375 12.1625 -6.9375 7.0625 C-8.2575 7.0625 -9.5775 7.0625 -10.9375 7.0625 C-10.9375 8.3825 -10.9375 9.7025 -10.9375 11.0625 C-12.5875 11.0625 -14.2375 11.0625 -15.9375 11.0625 C-15.9375 7.7625 -15.9375 4.4625 -15.9375 1.0625 C-10.57260405 0.15766363 -5.43432543 -0.06053662 0 0 Z " fill="#F19E3E" transform="translate(89.9375,3.9375)"/>
<path d="M0 0 C1.11084961 0.02707031 1.11084961 0.02707031 2.24414062 0.0546875 C4.0591571 0.10152663 5.87350166 0.17326211 7.6875 0.25 C7.730221 1.91611905 7.72813832 3.58382885 7.6875 5.25 C7.3575 5.58 7.0275 5.91 6.6875 6.25 C6.45674918 7.59747084 6.27596937 8.95377565 6.125 10.3125 C5.980625 11.611875 5.83625 12.91125 5.6875 14.25 C6.6775 14.25 7.6675 14.25 8.6875 14.25 C8.6875 15.9 8.6875 17.55 8.6875 19.25 C5.35416667 19.25 2.02083333 19.25 -1.3125 19.25 C-2.59125 19.3325 -3.87 19.415 -5.1875 19.5 C-8.02812187 19.46384663 -9.23619309 19.29006113 -11.8125 17.9375 C-14.18655776 13.68397984 -14.43160685 8.97666248 -13.3125 4.25 C-9.34344315 -0.3344145 -5.64164114 -0.26216742 0 0 Z " fill="#F29832" transform="translate(207.3125,11.75)"/>
<path d="M0 0 C3.375 2 3.375 2 6 4 C5.875 6.25 5.875 6.25 5 9 C1.9375 11.3125 1.9375 11.3125 -1 13 C0.65 13.33 2.3 13.66 4 14 C4 15.98 4 17.96 4 20 C2.58376784 20.05447047 1.16691809 20.09300508 -0.25 20.125 C-1.43335938 20.15980469 -1.43335938 20.15980469 -2.640625 20.1953125 C-6.07276247 19.91119516 -8.20784043 18.70728533 -10.75 16.4375 C-12.68655547 12.66121682 -12.90605053 9.13984062 -12 5 C-9.07218924 0.63343687 -5.12614183 -0.96115159 0 0 Z " fill="#EA9230" transform="translate(186,12)"/>
<path d="M0 0 C2.875 1.125 2.875 1.125 5 3 C5.6875 5.9375 5.6875 5.9375 5 9 C2 11.375 2 11.375 -1 13 C0.65 13.33 2.3 13.66 4 14 C4 15.98 4 17.96 4 20 C-1.01037815 20.61351569 -4.89289916 20.66406784 -9.0625 17.5625 C-11.65922251 15.00218015 -12.54486183 13.07494603 -12.8125 9.4375 C-12.5342232 6.07546196 -11.84914532 4.24757733 -9.375 1.9375 C-5.70826804 -0.16747575 -4.1309183 -0.70313503 0 0 Z " fill="#EB9330" transform="translate(136,12)"/>
<path d="M0 0 C3.375 -0.125 3.375 -0.125 7 0 C7.66 0.66 8.32 1.32 9 2 C9.99 2 10.98 2 12 2 C13.51833449 3.13875087 15.03600285 4.27839803 16.55078125 5.421875 C21.99380082 8.92901999 28.09919699 11.36476365 34 14 C32.16015625 15.515625 32.16015625 15.515625 30 17 C27.11099395 16.71814575 24.75652997 15.91884332 22 15 C21.01 15 20.02 15 19 15 C18.67 15.66 18.34 16.32 18 17 C11.81924532 13.61558676 7.28869051 10.5882937 3 5 C2.01 4.67 1.02 4.34 0 4 C0 2.68 0 1.36 0 0 Z " fill="#556906" transform="translate(36,2)"/>
<path d="M0 0 C2.97 0 5.94 0 9 0 C9 7.26 9 14.52 9 22 C9.99 22 10.98 22 12 22 C12 23.65 12 25.3 12 27 C8.04 27 4.08 27 0 27 C0 25.35 0 23.7 0 22 C0.66 22 1.32 22 2 22 C2 16.72 2 11.44 2 6 C1.34 6 0.68 6 0 6 C0 4.02 0 2.04 0 0 Z " fill="#F39C39" transform="translate(219,4)"/>
<path d="M0 0 C-0.99 1.485 -0.99 1.485 -2 3 C-2.02749478 5.06910593 -2.02749478 5.06910593 -1.625 7.1875 C-1.41875 8.445625 -1.2125 9.70375 -1 11 C-0.27941406 11.268125 0.44117188 11.53625 1.18359375 11.8125 C4.00032278 13.0001361 6.46478269 14.39399239 9.0625 16 C11.99172403 17.80537691 14.8974432 19.50962629 18 21 C17.01 21 16.02 21 15 21 C15 21.99 15 22.98 15 24 C18.96 23.505 18.96 23.505 23 23 C19.38705429 25.40863047 17.33790309 25.87887964 13 26 C10.25581179 24.92358201 7.96552553 23.37851796 5.5625 21.6875 C4.92634766 21.27048828 4.29019531 20.85347656 3.63476562 20.42382812 C2.04162162 19.3508944 0.51388715 18.18213379 -1 17 C-1 16.34 -1 15.68 -1 15 C-1.886875 14.773125 -2.77375 14.54625 -3.6875 14.3125 C-7.52957726 12.7901675 -9.44385561 11.23277085 -12 8 C-12.1328125 5.33203125 -12.1328125 5.33203125 -12 3 C-10.3789897 2.30314502 -8.75303934 1.61777139 -7.125 0.9375 C-6.22007813 0.55464844 -5.31515625 0.17179688 -4.3828125 -0.22265625 C-2 -1 -2 -1 0 0 Z " fill="#251F1B" transform="translate(16,11)"/>
<path d="M0 0 C0 3.31479997 -0.04322187 4.36392583 -2 7 C-4.72250025 8.35827146 -7.28321889 9.46248236 -10.125 10.5 C-10.92309082 10.80043213 -11.72118164 11.10086426 -12.54345703 11.41040039 C-21.21979584 14.59012519 -30.705877 18 -40 18 C-40 17.01 -40 16.02 -40 15 C-26.66666667 10 -13.33333333 5 0 0 Z " fill="#131608" transform="translate(71,17)"/>
<path d="M0 0 C0.66 0.99 1.32 1.98 2 3 C0.02 3 -1.96 3 -4 3 C-4 3.66 -4 4.32 -4 5 C-4.99 5 -5.98 5 -7 5 C-7 5.66 -7 6.32 -7 7 C-10.62890561 9.83508251 -13.64919035 10.29074232 -18.0625 10.68359375 C-20.80802911 11.13195637 -22.76662856 12.39476428 -25 14 C-25.8125 11.375 -25.8125 11.375 -26 8 C-23.6147279 4.24138942 -22.15354551 2.5266186 -18.125 0.6875 C-11.71246609 -0.72325746 -6.43824487 -1.30947353 0 0 Z " fill="#D16C29" transform="translate(39,6)"/>
<path d="M0 0 C0.66 0.33 1.32 0.66 2 1 C1.01 2.485 1.01 2.485 0 4 C0 4.99 0 5.98 0 7 C-2.31 7.66 -4.62 8.32 -7 9 C-7 8.34 -7 7.68 -7 7 C-8.65 7.66 -10.3 8.32 -12 9 C-12 9.99 -12 10.98 -12 12 C-11.01 12.33 -10.02 12.66 -9 13 C-9 12.34 -9 11.68 -9 11 C-6.625 11.25 -6.625 11.25 -4 12 C-2.9375 13.9375 -2.9375 13.9375 -2 16 C0.0335948 17.26804566 0.0335948 17.26804566 2 18 C2 18.33 2 18.66 2 19 C-3.14243646 19.41632919 -5.94180519 18.29204913 -10.3125 15.625 C-11.88451172 14.68527344 -11.88451172 14.68527344 -13.48828125 13.7265625 C-16 12 -16 12 -17 10 C-16.34 10 -15.68 10 -15 10 C-15 8.68 -15 7.36 -15 6 C-12.71611686 4.85805843 -11.1616334 4.83497869 -8.625 4.6875 C-5.20118896 4.356697 -4.21079844 4.16966704 -1.4375 1.9375 C-0.963125 1.298125 -0.48875 0.65875 0 0 Z " fill="#B56D33" transform="translate(34,12)"/>
<path d="M0 0 C4.73592384 0.17994875 8.44563636 0.89847014 12.94921875 2.4609375 C16.27374869 2.91724553 19.60346472 3.20967534 22.94921875 3.4609375 C22.94921875 5.7709375 22.94921875 8.0809375 22.94921875 10.4609375 C22.61921875 10.4609375 22.28921875 10.4609375 21.94921875 10.4609375 C21.94921875 8.4809375 21.94921875 6.5009375 21.94921875 4.4609375 C16.92215958 4.58141168 13.85049324 4.70680987 9.88671875 8.0234375 C9.24734375 8.8278125 8.60796875 9.6321875 7.94921875 10.4609375 C7.66046875 9.6565625 7.37171875 8.8521875 7.07421875 8.0234375 C4.50543566 4.9257873 3.63971066 5.01045655 -0.23828125 4.6484375 C-1.84142066 4.5635789 -3.44573929 4.49406219 -5.05078125 4.4609375 C-2.64361213 0.5941833 -2.64361213 0.5941833 0 0 Z " fill="#150E06" transform="translate(149.05078125,0.5390625)"/>
<path d="M0 0 C3.94267457 1.40183985 6.71010826 0.69532063 10.8125 0 C7.77842495 2.51658723 4.97033303 3.82819791 1.2421875 5.078125 C0.18128906 5.43390625 -0.87960938 5.7896875 -1.97265625 6.15625 C-3.07480469 6.5171875 -4.17695312 6.878125 -5.3125 7.25 C-6.42238281 7.62640625 -7.53226563 8.0028125 -8.67578125 8.390625 C-9.73410156 8.74125 -10.79242188 9.091875 -11.8828125 9.453125 C-13.3371167 9.93507324 -13.3371167 9.93507324 -14.82080078 10.42675781 C-17.1875 11 -17.1875 11 -19.1875 10 C-18.8575 9.01 -18.5275 8.02 -18.1875 7 C-16.929375 6.896875 -15.67125 6.79375 -14.375 6.6875 C-11.58250343 6.35141192 -10.44316879 6.19974124 -8.1875 4.4375 C-7.8575 3.963125 -7.5275 3.48875 -7.1875 3 C-6.5275 3.33 -5.8675 3.66 -5.1875 4 C-5.1875 2.68 -5.1875 1.36 -5.1875 0 C-2.1875 -1 -2.1875 -1 0 0 Z " fill="#69633F" transform="translate(60.1875,17)"/>
<path d="M0 0 C0.66 0.99 1.32 1.98 2 3 C0.02 3 -1.96 3 -4 3 C-4 3.66 -4 4.32 -4 5 C-9.94 5.495 -9.94 5.495 -16 6 C-15.34 5.01 -14.68 4.02 -14 3 C-14.99 2.67 -15.98 2.34 -17 2 C-12.61581881 -2.38418119 -5.62143171 -1.14334204 0 0 Z " fill="#AE6F2C" transform="translate(39,6)"/>
<path d="M0 0 C5 1 5 1 6 2 C6.16796875 3.99609375 6.16796875 3.99609375 6.1875 6.4375 C6.20167969 7.24058594 6.21585938 8.04367188 6.23046875 8.87109375 C6 11 6 11 4 13 C2.68 13 1.36 13 0 13 C0 8.71 0 4.42 0 0 Z " fill="#1A1106" transform="translate(243,12)"/>
<path d="M0 0 C3.5625 0.1875 3.5625 0.1875 5.5625 2.1875 C5.00694444 6.74305556 5.00694444 6.74305556 3.5625 8.1875 C0.625 8.375 0.625 8.375 -2.4375 8.1875 C-4.4375 6.1875 -4.4375 6.1875 -4.625 3.625 C-4.33162457 -0.18888063 -3.96935544 0.2165103 0 0 Z " fill="#D4DB95" transform="translate(45.4375,14.8125)"/>
<path d="M0 0 C1.32 0.66 2.64 1.32 4 2 C4.34833144 6.87664009 3.41685712 9.77050005 1 14 C-2.63 14 -6.26 14 -10 14 C-10 13.67 -10 13.34 -10 13 C-6.7 13 -3.4 13 0 13 C0 11.68 0 10.36 0 9 C-0.66 9 -1.32 9 -2 9 C-2.125 5.625 -2.125 5.625 -2 2 C-1.34 1.34 -0.68 0.68 0 0 Z " fill="#362009" transform="translate(111,18)"/>
<path d="M0 0 C5.4556837 2.12405077 10.81634671 4.27176143 16 7 C13.85631725 8.98489144 12.65641495 9.98225906 9.6875 10.0625 C5.83958501 8.54123128 2.70802117 6.13724643 0 3 C0 2.01 0 1.02 0 0 Z " fill="#322D1F" transform="translate(54,9)"/>
<path d="M0 0 C1.98 0 3.96 0 6 0 C3.98555397 1.34296402 1.96458448 2.67618973 -0.0625 4 C-2.97085303 5.84649262 -2.97085303 5.84649262 -5 8 C-7.6015625 8.4140625 -7.6015625 8.4140625 -10.625 8.625 C-11.62789062 8.69976562 -12.63078125 8.77453125 -13.6640625 8.8515625 C-14.82035156 8.92503906 -14.82035156 8.92503906 -16 9 C-16 10.32 -16 11.64 -16 13 C-17.32 13 -18.64 13 -20 13 C-19.875 11.1875 -19.875 11.1875 -19 9 C-15.14543904 6.54709757 -12.49401813 5.87516616 -8 6 C-7.34 5.34 -6.68 4.68 -6 4 C-5.01 4 -4.02 4 -3 4 C-3 3.34 -3 2.68 -3 2 C-2.01 2 -1.02 2 0 2 C0 1.34 0 0.68 0 0 Z " fill="#E3AB5A" transform="translate(35,9)"/>
<path d="M0 0 C-0.99 1.485 -0.99 1.485 -2 3 C-1.68269476 6.63939932 -1.68269476 6.63939932 -1 10 C-5.10958767 8.54955729 -8.43258745 6.48889248 -12 4 C-11 2 -11 2 -9.00390625 1.11328125 C-7.79541016 0.71689453 -7.79541016 0.71689453 -6.5625 0.3125 C-5.75941406 0.04050781 -4.95632812 -0.23148438 -4.12890625 -0.51171875 C-2 -1 -2 -1 0 0 Z " fill="#493F2C" transform="translate(16,11)"/>
<path d="M0 0 C0.99 0.66 1.98 1.32 3 2 C2.67 2.99 2.34 3.98 2 5 C-1.87862084 6.39044898 -4.86462003 7 -9 7 C-9 7.66 -9 8.32 -9 9 C-10.32 8.67 -11.64 8.34 -13 8 C-12.67 6.68 -12.34 5.36 -12 4 C-10.35 3.67 -8.7 3.34 -7 3 C-7 3.66 -7 4.32 -7 5 C-6.01 4.34 -5.02 3.68 -4 3 C-2.68 3 -1.36 3 0 3 C0 2.01 0 1.02 0 0 Z " fill="#E7A95D" transform="translate(34,16)"/>
<path d="M0 0 C1.32 0.66 2.64 1.32 4 2 C4 2.66 4 3.32 4 4 C3.360625 4.309375 2.72125 4.61875 2.0625 4.9375 C0.06389179 5.8345163 0.06389179 5.8345163 -1 7 C-2.99541896 7.22528924 -4.99159864 7.44761095 -6.9921875 7.62109375 C-9.30715407 7.92253842 -9.30715407 7.92253842 -12 10 C-12.33 8.68 -12.66 7.36 -13 6 C-12.01 6 -11.02 6 -10 6 C-9.67 5.34 -9.34 4.68 -9 4 C-8.67 4.33 -8.34 4.66 -8 5 C-6.00041636 5.04080783 -3.99954746 5.04254356 -2 5 C-1.34 3.35 -0.68 1.7 0 0 Z " fill="#CCAF57" transform="translate(51,17)"/>
<path d="M0 0 C1.010625 0.0825 2.02125 0.165 3.0625 0.25 C3.7225 1.24 4.3825 2.23 5.0625 3.25 C2.39583333 4.58333333 -0.27083333 5.91666667 -2.9375 7.25 C-3.31883299 5.2585944 -3.65075582 3.25720923 -3.9375 1.25 C-2.9375 0.25 -2.9375 0.25 0 0 Z " fill="#D18040" transform="translate(16.9375,12.75)"/>
<path d="M0 0 C2.125 0.375 2.125 0.375 4 1 C4 2.65 4 4.3 4 6 C2.35 6.33 0.7 6.66 -1 7 C-1.625 4.625 -1.625 4.625 -2 2 C-1.34 1.34 -0.68 0.68 0 0 Z " fill="#191005" transform="translate(202,18)"/>
<path d="M0 0 C5.63470383 -0.5497272 8.38987758 1.04952165 13 4 C13 4.33 13 4.66 13 5 C7.36529617 5.5497272 4.61012242 3.95047835 0 1 C0 0.67 0 0.34 0 0 Z " fill="#685B40" transform="translate(23,26)"/>
<path d="M0 0 C1.98 0 3.96 0 6 0 C6.33 1.65 6.66 3.3 7 5 C4 6 4 6 1.8125 5.0625 C1.214375 4.711875 0.61625 4.36125 0 4 C0 2.68 0 1.36 0 0 Z " fill="#465609" transform="translate(36,2)"/>
<path d="M0 0 C0.66 0.33 1.32 0.66 2 1 C1.01 2.485 1.01 2.485 0 4 C0 4.99 0 5.98 0 7 C-2.31 7.66 -4.62 8.32 -7 9 C-5.44499019 5.18315774 -2.96404505 2.80804268 0 0 Z " fill="#CB5E1D" transform="translate(34,12)"/>
<path d="M0 0 C3.3 0 6.6 0 10 0 C7.28527098 2.71472902 4.69347931 3.14258516 1 4 C0.34 3.67 -0.32 3.34 -1 3 C-0.67 2.01 -0.34 1.02 0 0 Z " fill="#6D6439" transform="translate(42,24)"/>
<path d="M0 0 C0.33 0.66 0.66 1.32 1 2 C-0.32 2.33 -1.64 2.66 -3 3 C-3.33 4.98 -3.66 6.96 -4 9 C-5.32 8.01 -6.64 7.02 -8 6 C-3.375 1.125 -3.375 1.125 0 0 Z " fill="#C28539" transform="translate(41,9)"/>
<path d="M0 0 C0.598125 0.350625 1.19625 0.70125 1.8125 1.0625 C1.8125 1.7225 1.8125 2.3825 1.8125 3.0625 C0.1625 3.3925 -1.4875 3.7225 -3.1875 4.0625 C-3.8475 2.7425 -4.5075 1.4225 -5.1875 0.0625 C-2.1875 -0.9375 -2.1875 -0.9375 0 0 Z " fill="#90A45C" transform="translate(60.1875,16.9375)"/>
<path d="M0 0 C0.33 0 0.66 0 1 0 C1.17942163 3.94727588 1.09350689 6.5980513 -1 10 C-2.98 10 -4.96 10 -7 10 C-3.25 6.125 -3.25 6.125 -1 5 C-0.34444881 2.47266765 -0.34444881 2.47266765 0 0 Z " fill="#39240B" transform="translate(141,16)"/>
<path d="M0 0 C5.78461538 4.43076923 5.78461538 4.43076923 6.875 7.3125 C6.936875 8.1478125 6.936875 8.1478125 7 9 C3.17475764 7.549046 1.80909034 5.61818068 0 2 C0 1.34 0 0.68 0 0 Z " fill="#85910E" transform="translate(42,2)"/>
<path d="M0 0 C1.65 0 3.3 0 5 0 C5 0.99 5 1.98 5 3 C3.02 3.33 1.04 3.66 -1 4 C-0.67 2.68 -0.34 1.36 0 0 Z " fill="#DCAA50" transform="translate(31,5)"/>
<path d="M0 0 C0 0.66 0 1.32 0 2 C-0.66 2 -1.32 2 -2 2 C-2.66 3.65 -3.32 5.3 -4 7 C-4.66 7 -5.32 7 -6 7 C-5.625 4.0625 -5.625 4.0625 -5 1 C-3 0 -3 0 0 0 Z " fill="#DFB956" transform="translate(43,11)"/>
<path d="M0 0 C2.5 1.125 2.5 1.125 5 3 C5.3125 6.1875 5.3125 6.1875 5 9 C2.9754262 7.06745228 1.57894208 5.36841312 0 3 C0 2.01 0 1.02 0 0 Z " fill="#3F5201" transform="translate(46,3)"/>
<path d="M0 0 C0.99 0 1.98 0 3 0 C3 1.65 3 3.3 3 5 C1.68 5 0.36 5 -1 5 C-0.67 3.35 -0.34 1.7 0 0 Z " fill="#F4B870" transform="translate(32,23)"/>
<path d="M0 0 C0.763125 0.20625 1.52625 0.4125 2.3125 0.625 C1.3225 1.285 0.3325 1.945 -0.6875 2.625 C-1.6775 4.11 -1.6775 4.11 -2.6875 5.625 C-2.6875 4.635 -2.6875 3.645 -2.6875 2.625 C-3.6775 2.955 -4.6675 3.285 -5.6875 3.625 C-5.6875 2.965 -5.6875 2.305 -5.6875 1.625 C-2.6875 -0.375 -2.6875 -0.375 0 0 Z " fill="#D77B36" transform="translate(32.6875,21.375)"/>
<path d="M0 0 C0.66 0 1.32 0 2 0 C2.33 1.65 2.66 3.3 3 5 C2.01 5.66 1.02 6.32 0 7 C-1 6 -1 6 -1.125 3.5 C-1 1 -1 1 0 0 Z " fill="#C5CF76" transform="translate(42,15)"/>
<path d="M0 0 C1.98 0.66 3.96 1.32 6 2 C5.67 2.99 5.34 3.98 5 5 C3.68 4.67 2.36 4.34 1 4 C0.67 2.68 0.34 1.36 0 0 Z " fill="#454122" transform="translate(54,9)"/>
<path d="M0 0 C1.875 0.125 1.875 0.125 4 1 C5.25 4.0625 5.25 4.0625 6 7 C3.00675737 5.9024777 2.15389099 5.32317108 0.75 2.375 C0.5025 1.59125 0.255 0.8075 0 0 Z " fill="#938E0E" transform="translate(50,7)"/>
<path d="M0 0 C0.99 0.66 1.98 1.32 3 2 C-1.07369424 4.03684712 -3.58937864 4.0257259 -8 3 C-8 2.67 -8 2.34 -8 2 C-6.865625 1.855625 -5.73125 1.71125 -4.5625 1.5625 C-1.19222799 1.38828522 -1.19222799 1.38828522 0 0 Z " fill="#91774D" transform="translate(40,26)"/>
<path d="M0 0 C0.99 0 1.98 0 3 0 C3.33 1.65 3.66 3.3 4 5 C2.68 5 1.36 5 0 5 C0 3.35 0 1.7 0 0 Z " fill="#C66A2A" transform="translate(35,23)"/>
<path d="M0 0 C1.32 0.66 2.64 1.32 4 2 C4 2.66 4 3.32 4 4 C1.35261084 5.4606285 0.10551666 6 -3 6 C-2.34 5.34 -1.68 4.68 -1 4 C-0.3574765 1.93125966 -0.3574765 1.93125966 0 0 Z " fill="#98A039" transform="translate(51,17)"/>
<path d="M0 0 C0.80050781 0.12761719 1.60101563 0.25523438 2.42578125 0.38671875 C3.23402344 0.50660156 4.04226562 0.62648438 4.875 0.75 C5.48988281 0.85699219 6.10476562 0.96398438 6.73828125 1.07421875 C6.73828125 1.40421875 6.73828125 1.73421875 6.73828125 2.07421875 C0.79828125 2.56921875 0.79828125 2.56921875 -5.26171875 3.07421875 C-2.26171875 0.07421875 -2.26171875 0.07421875 0 0 Z " fill="#9D5A27" transform="translate(28.26171875,8.92578125)"/>
</svg>
